<?xml version="1.0" encoding="UTF-8" standalone="no"?>
<svg
   xmlns:dc="http://purl.org/dc/elements/1.1/"
   xmlns:cc="http://creativecommons.org/ns#"
   xmlns:rdf="http://www.w3.org/1999/02/22-rdf-syntax-ns#"
   xmlns:svg="http://www.w3.org/2000/svg"
   xmlns="http://www.w3.org/2000/svg"
   xmlns:sodipodi="http://sodipodi.sourceforge.net/DTD/sodipodi-0.dtd"
   xmlns:inkscape="http://www.inkscape.org/namespaces/inkscape"
   width="654pt"
   height="368pt"
   viewBox="36 15 11528 6489"
   version="1.1"
   id="svg228"
   sodipodi:docname="dhcp-client-state-diagram.svg"
   inkscape:version="1.0.1 (3bc2e813f5, 2020-09-07)">
  <metadata
     id="metadata234">
    <rdf:RDF>
      <cc:Work
         rdf:about="">
        <dc:format>image/svg+xml</dc:format>
        <dc:type
           rdf:resource="http://purl.org/dc/dcmitype/StillImage" />
      </cc:Work>
    </rdf:RDF>
  </metadata>
  <defs
     id="defs232">
    <marker
       style="overflow:visible;"
       id="marker1527"
       refX="0.0"
       refY="0.0"
       orient="auto"
       inkscape:stockid="Arrow1Lend"
       inkscape:isstock="true">
      <path
         transform="scale(0.8) rotate(180) translate(12.5,0)"
         style="fill-rule:evenodd;stroke:#000000;stroke-width:1pt;stroke-opacity:1;fill:#000000;fill-opacity:1"
         d="M 0.0,0.0 L 5.0,-5.0 L -12.5,0.0 L 5.0,5.0 L 0.0,0.0 z "
         id="path1525" />
    </marker>
    <marker
       style="overflow:visible;"
       id="marker1487"
       refX="0.0"
       refY="0.0"
       orient="auto"
       inkscape:stockid="Arrow1Lend"
       inkscape:isstock="true">
      <path
         transform="scale(0.8) rotate(180) translate(12.5,0)"
         style="fill-rule:evenodd;stroke:#000000;stroke-width:1pt;stroke-opacity:1;fill:#000000;fill-opacity:1"
         d="M 0.0,0.0 L 5.0,-5.0 L -12.5,0.0 L 5.0,5.0 L 0.0,0.0 z "
         id="path1485" />
    </marker>
    <marker
       style="overflow:visible;"
       id="Arrow1Lend"
       refX="0.0"
       refY="0.0"
       orient="auto"
       inkscape:stockid="Arrow1Lend"
       inkscape:isstock="true"
       inkscape:collect="always">
      <path
         transform="scale(0.8) rotate(180) translate(12.5,0)"
         style="fill-rule:evenodd;stroke:#000000;stroke-width:1pt;stroke-opacity:1;fill:#000000;fill-opacity:1"
         d="M 0.0,0.0 L 5.0,-5.0 L -12.5,0.0 L 5.0,5.0 L 0.0,0.0 z "
         id="path1180" />
    </marker>
    <marker
       style="overflow:visible"
       id="Arrow1Lstart"
       refX="0.0"
       refY="0.0"
       orient="auto"
       inkscape:stockid="Arrow1Lstart"
       inkscape:isstock="true">
      <path
         transform="scale(0.8) translate(12.5,0)"
         style="fill-rule:evenodd;stroke:#000000;stroke-width:1pt;stroke-opacity:1;fill:#000000;fill-opacity:1"
         d="M 0.0,0.0 L 5.0,-5.0 L -12.5,0.0 L 5.0,5.0 L 0.0,0.0 z "
         id="path1177" />
    </marker>
    <defs
       id="defs15">
      <clipPath
         id="cp0">
        <path
           clip-rule="evenodd"
           d="M 36,15 H 11564 V 6504 H 36 z   M 3710,615 3770,675 3710,735 4061,686 4061,665z"
           id="path12" />
      </clipPath>
    </defs>
    <defs
       id="defs24">
      <clipPath
         id="cp1">
        <path
           clip-rule="evenodd"
           d="M 36,15 H 11564 V 6504 H 36 z   M 5010,5060 4950,5120 4890,5060 4940,5411 4961,5411z"
           id="path21" />
      </clipPath>
    </defs>
    <defs
       id="defs33">
      <clipPath
         id="cp2">
        <path
           clip-rule="evenodd"
           d="M 36,15 H 11564 V 6504 H 36 z   M 8940,3490 9000,3430 9060,3490 9011,3140 8990,3140z"
           id="path30" />
      </clipPath>
    </defs>
    <defs
       id="defs42">
      <clipPath
         id="cp3">
        <path
           clip-rule="evenodd"
           d="M 36,15 H 11564 V 6504 H 36 z   M 1645,5488 1686,5476 1697,5517 1764,5352 1752,5346z"
           id="path39" />
      </clipPath>
    </defs>
    <defs
       id="defs51">
      <clipPath
         id="cp4">
        <path
           clip-rule="evenodd"
           d="M 36,15 H 11564 V 6504 H 36 z   M 1566,4629 1566,4671 1524,4671 1665,4780 1675,4770z"
           id="path48" />
      </clipPath>
    </defs>
    <defs
       id="defs62">
      <clipPath
         id="cp5">
        <path
           clip-rule="evenodd"
           d="M 36,15 H 11564 V 6504 H 36 z   M 5010,2360 4950,2420 4890,2360 4940,2711 4961,2711z"
           id="path59" />
      </clipPath>
    </defs>
    <defs
       id="defs71">
      <clipPath
         id="cp6">
        <path
           clip-rule="evenodd"
           d="M 36,15 H 11564 V 6504 H 36 z   M 5010,2360 4950,2420 4890,2360 4940,2711 4961,2711z"
           id="path68" />
      </clipPath>
    </defs>
    <defs
       id="defs80">
      <clipPath
         id="cp7">
        <path
           clip-rule="evenodd"
           d="M 36,15 H 11564 V 6504 H 36 z   M 1317,1560 1375,1497 1437,1555 1373,1207 1352,1208z"
           id="path77" />
      </clipPath>
    </defs>
    <defs
       id="defs89">
      <clipPath
         id="cp8">
        <path
           clip-rule="evenodd"
           d="M 36,15 H 11564 V 6504 H 36 z   M 1317,1560 1375,1497 1437,1555 1373,1207 1352,1208z"
           id="path86" />
      </clipPath>
    </defs>
    <defs
       id="defs98">
      <clipPath
         id="cp9">
        <path
           clip-rule="evenodd"
           d="M 36,15 H 11564 V 6504 H 36 z   M 1317,1560 1375,1497 1437,1555 1373,1207 1352,1208z   M 7919,5944 8002,5960 7986,6043 8250,5808 8238,5790z"
           id="path95" />
      </clipPath>
    </defs>
    <defs
       id="defs107">
      <clipPath
         id="cp10">
        <path
           clip-rule="evenodd"
           d="M 36,15 H 11564 V 6504 H 36 z   M 1317,1560 1375,1497 1437,1555 1373,1207 1352,1208z   M 7919,5944 8002,5960 7986,6043 8250,5808 8238,5790z"
           id="path104" />
      </clipPath>
    </defs>
    <defs
       id="defs116">
      <clipPath
         id="cp11">
        <path
           clip-rule="evenodd"
           d="M 36,15 H 11564 V 6504 H 36 z   M 1317,1560 1375,1497 1437,1555 1373,1207 1352,1208z   M 6190,735 6130,675 6190,615 5840,665 5840,686z"
           id="path113" />
      </clipPath>
    </defs>
  </defs>
  <sodipodi:namedview
     pagecolor="#ffffff"
     bordercolor="#666666"
     borderopacity="1"
     objecttolerance="10"
     gridtolerance="10"
     guidetolerance="10"
     inkscape:pageopacity="0"
     inkscape:pageshadow="2"
     inkscape:window-width="2297"
     inkscape:window-height="1572"
     id="namedview230"
     showgrid="false"
     inkscape:zoom="2.0543478"
     inkscape:cx="331.5873"
     inkscape:cy="245.33333"
     inkscape:window-x="3200"
     inkscape:window-y="59"
     inkscape:window-maximized="0"
     inkscape:current-layer="svg228" />
  <rect
     x="450"
     y="450"
     width="1800"
     height="450"
     rx="225"
     stroke="#000000"
     stroke-width="15px"
     id="rect2"
     style="fill:none" />
  <rect
     x="4050"
     y="450"
     width="1800"
     height="450"
     rx="225"
     stroke="#000000"
     stroke-width="15px"
     id="rect4"
     style="fill:none" />
  <rect
     x="4050"
     y="2700"
     width="1800"
     height="450"
     rx="225"
     stroke="#000000"
     stroke-width="15px"
     id="rect6"
     style="fill:none" />
  <rect
     x="8100"
     y="5400"
     width="1800"
     height="450"
     rx="225"
     stroke="#000000"
     stroke-width="15px"
     id="rect8"
     style="fill:none" />
  <rect
     x="8100"
     y="2700"
     width="1800"
     height="450"
     rx="225"
     stroke="#000000"
     stroke-width="15px"
     id="rect10"
     style="fill:none" />
  <polyline
     points=" 2250,675 4050,675"
     clip-path="url(#cp0)"
     stroke="#000000"
     stroke-width="15px"
     id="polyline17"
     style="fill:none" />
  <polygon
     points="3710,615 3770,675 3710,735 4010,675 "
     stroke="#000000"
     stroke-width="15px"
     stroke-miterlimit="8"
     fill="#000000"
     id="polygon19" />
  <polyline
     points=" 4950,3150 4950,5400"
     clip-path="url(#cp1)"
     stroke="#000000"
     stroke-width="15px"
     id="polyline26"
     style="fill:none" />
  <polygon
     points="5010,5060 4950,5120 4890,5060 4950,5360 "
     stroke="#000000"
     stroke-width="15px"
     stroke-miterlimit="8"
     fill="#000000"
     id="polygon28" />
  <polyline
     points=" 9000,5400 9000,3150"
     clip-path="url(#cp2)"
     stroke="#000000"
     stroke-width="15px"
     id="polyline35"
     style="fill:none" />
  <polygon
     points="8940,3490 9000,3430 9060,3490 9000,3190 "
     stroke="#000000"
     stroke-width="15px"
     stroke-miterlimit="8"
     fill="#000000"
     id="polygon37" />
  <polyline
     points=" 1575,5670 1755,5355"
     clip-path="url(#cp3)"
     stroke="#000000"
     stroke-width="8px"
     id="polyline44"
     style="fill:none" />
  <polygon
     points="1645,5488 1686,5476 1697,5517 1745,5372 "
     stroke="#000000"
     stroke-width="8px"
     stroke-miterlimit="8"
     fill="#000000"
     id="polygon46" />
  <polyline
     points=" 1395,4500 1665,4770"
     clip-path="url(#cp4)"
     stroke="#000000"
     stroke-width="8px"
     id="polyline53"
     style="fill:none" />
  <polygon
     points="1566,4629 1566,4671 1524,4671 1651,4756 "
     stroke="#000000"
     stroke-width="8px"
     stroke-miterlimit="8"
     fill="#000000"
     id="polygon55" />
  <rect
     x="4050"
     y="5400"
     width="1800"
     height="450"
     rx="225"
     stroke="#000000"
     stroke-width="15px"
     id="rect57"
     style="fill:none" />
  <polyline
     points=" 4950,900 4950,2700"
     clip-path="url(#cp5)"
     stroke="#000000"
     stroke-width="15px"
     id="polyline64"
     style="fill:none" />
  <polygon
     points="5010,2360 4950,2420 4890,2360 4950,2660 "
     stroke="#000000"
     stroke-width="15px"
     stroke-miterlimit="8"
     fill="#000000"
     id="polygon66" />
  <polyline
     points=" 1350,900 1350,901 1350,903 1350,906 1350,911 1351,919 1351,929 1351,943 1352,960  1353,980 1354,1003 1355,1030 1356,1061 1357,1095 1359,1133 1361,1174 1363,1218  1365,1265 1368,1314 1371,1366 1374,1420 1377,1477 1381,1535 1385,1594 1389,1655  1394,1717 1399,1780 1405,1845 1411,1909 1417,1975 1424,2042 1431,2109 1439,2177  1448,2245 1457,2315 1467,2385 1477,2456 1489,2528 1501,2601 1515,2676 1529,2751  1544,2828 1561,2905 1579,2984 1597,3064 1618,3144 1639,3225 1662,3306 1685,3386  1710,3465 1742,3561 1774,3653 1806,3739 1837,3818 1867,3891 1894,3956 1920,4014  1943,4065 1963,4110 1981,4147 1997,4179 2011,4205 2023,4226 2033,4243 2041,4257  2048,4266 2055,4274 2060,4279 2065,4283 2070,4286 2075,4289 2081,4292 2087,4296  2095,4301 2104,4307 2115,4316 2129,4328 2144,4342 2163,4361 2185,4383 2210,4409  2239,4439 2272,4474 2309,4513 2350,4556 2395,4603 2444,4654 2497,4706 2552,4761  2610,4815 2669,4868 2729,4920 2788,4968 2847,5015 2904,5059 2961,5100 3016,5138  3070,5174 3123,5208 3174,5240 3225,5270 3274,5298 3323,5324 3370,5349 3417,5372  3463,5395 3509,5416 3553,5436 3597,5455 3639,5473 3681,5490 3721,5506 3760,5522  3797,5536 3832,5549 3865,5561 3896,5572 3924,5582 3949,5591 3971,5599 3991,5605  4007,5611 4020,5615 4031,5619 4038,5621 4050,5625"
     clip-path="url(#cp6)"
     stroke="#000000"
     stroke-width="15px"
     stroke-linejoin="bevel"
     id="polyline73"
     style="fill:none;stroke-width:14.99699623;stroke-miterlimit:4;stroke-dasharray:none;marker-end:url(#Arrow1Lend)" />
  <polyline
     points=""
     stroke="#000000"
     stroke-width="15px"
     stroke-miterlimit="8"
     fill="#000000"
     id="polyline75" />
  <polyline
     points=" 8235,5400 8234,5399 8232,5398 8229,5396 8223,5392 8215,5386 8205,5379 8192,5370  8175,5359 8156,5346 8134,5332 8110,5316 8083,5298 8053,5280 8021,5260 7988,5240  7953,5220 7916,5199 7878,5178 7838,5157 7797,5137 7755,5117 7712,5097 7667,5079  7621,5061 7573,5044 7523,5027 7471,5012 7418,4999 7361,4986 7302,4975 7241,4966  7177,4958 7111,4953 7044,4950 6975,4950 6907,4953 6839,4958 6774,4966 6711,4975  6651,4987 6593,5000 6538,5015 6485,5030 6435,5047 6387,5065 6341,5084 6296,5104  6254,5124 6212,5145 6172,5166 6133,5188 6096,5210 6060,5233 6025,5255 5991,5277  5960,5298 5930,5318 5902,5338 5877,5356 5854,5373 5833,5388 5816,5402 5800,5413  5788,5423 5778,5431 5771,5436 5760,5445"
     clip-path="url(#cp7)"
     stroke="#000000"
     stroke-width="15px"
     stroke-linejoin="bevel"
     id="polyline82"
     style="fill:none" />
  <polyline
     points=" 8100,2880 8099,2880 8097,2880 8093,2880 8087,2880 8078,2880 8067,2880 8052,2881  8033,2881 8011,2882 7986,2883 7957,2884 7925,2886 7889,2888 7851,2891 7810,2894  7767,2897 7721,2902 7674,2907 7625,2913 7574,2919 7522,2927 7470,2936 7416,2946  7362,2957 7306,2970 7250,2984 7194,3000 7136,3018 7078,3038 7018,3061 6958,3085  6896,3113 6834,3143 6770,3176 6705,3213 6639,3253 6572,3297 6504,3345 6435,3396  6367,3452 6300,3510 6240,3566 6182,3623 6127,3682 6074,3741 6024,3801 5977,3860  5932,3919 5890,3978 5851,4036 5813,4094 5778,4152 5745,4209 5714,4265 5685,4322  5657,4377 5631,4433 5606,4488 5583,4543 5560,4597 5539,4651 5519,4705 5500,4757  5482,4809 5464,4860 5448,4910 5432,4959 5418,5006 5404,5051 5391,5095 5380,5136  5369,5174 5359,5210 5350,5242 5342,5272 5336,5298 5330,5321 5325,5341 5320,5357  5317,5370 5315,5381 5313,5389 5310,5400"
     clip-path="url(#cp8)"
     stroke="#000000"
     stroke-width="15px"
     stroke-linejoin="bevel"
     id="polyline91"
     style="fill:none" />
  <polyline
     points=""
     stroke="#000000"
     stroke-width="15px"
     stroke-miterlimit="8"
     fill="#000000"
     id="polyline93" />
  <polyline
     points=" 8235,5805 8223,5813 8215,5819 8205,5826 8191,5835 8175,5846 8156,5858 8134,5872  8109,5888 8081,5905 8052,5924 8020,5943 7986,5963 7950,5983 7913,6004 7875,6024  7835,6045 7794,6065 7752,6085 7709,6104 7664,6123 7618,6141 7570,6158 7520,6174  7468,6189 7415,6204 7358,6216 7300,6228 7239,6237 7176,6245 7110,6251 7043,6254  6975,6255 6903,6253 6833,6248 6765,6240 6700,6231 6638,6219 6579,6205 6522,6190  6469,6174 6418,6157 6369,6138 6322,6119 6277,6098 6234,6077 6192,6056 6152,6034  6113,6011 6076,5989 6040,5966 6006,5944 5974,5923 5944,5902 5916,5882 5890,5864  5868,5848 5848,5833 5831,5820 5817,5810 5806,5801 5797,5795 5792,5790 5788,5787  5786,5786 5785,5785"
     clip-path="url(#cp9)"
     stroke="#000000"
     stroke-width="15px"
     stroke-linejoin="bevel"
     id="polyline100"
     style="fill:none" />
  <polygon
     points="7919,5944 8002,5960 7986,6043 8202,5827 "
     stroke="#000000"
     stroke-width="15px"
     stroke-miterlimit="8"
     fill="#000000"
     id="polygon102" />
  <polyline
     points=" 9000,2700 9000,2699 9000,2698 8999,2695 8999,2690 8998,2684 8997,2675 8995,2664  8993,2651 8991,2636 8987,2618 8983,2598 8978,2577 8972,2554 8966,2529 8958,2504  8949,2477 8938,2450 8926,2422 8913,2394 8898,2365 8880,2336 8861,2307 8839,2278  8815,2249 8788,2220 8757,2191 8723,2162 8684,2133 8642,2103 8594,2074 8542,2045  8484,2016 8421,1988 8353,1961 8280,1935 8218,1915 8154,1897 8090,1881 8026,1866  7965,1854 7905,1843 7848,1835 7794,1828 7742,1824 7694,1821 7649,1820 7608,1820  7569,1822 7532,1825 7499,1830 7467,1835 7438,1841 7410,1848 7384,1855 7358,1863  7333,1871 7309,1879 7284,1887 7259,1895 7234,1902 7207,1910 7179,1916 7149,1922  7117,1927 7082,1931 7045,1933 7006,1935 6963,1934 6916,1932 6867,1929 6814,1923  6757,1915 6698,1905 6635,1893 6570,1879 6504,1862 6436,1844 6367,1823 6300,1800  6225,1772 6153,1742 6085,1711 6023,1680 5964,1648 5910,1615 5860,1583 5815,1550  5773,1518 5734,1486 5698,1453 5665,1421 5635,1388 5607,1356 5581,1324 5557,1292  5534,1260 5513,1228 5494,1197 5476,1166 5460,1136 5445,1107 5431,1079 5418,1053  5407,1028 5397,1006 5388,985 5380,967 5374,950 5369,937 5364,926 5361,917 5359,910  5355,900"
     clip-path="url(#cp10)"
     stroke="#000000"
     stroke-width="15px"
     stroke-linejoin="bevel"
     id="polyline109"
     style="fill:none;marker-end:url(#marker1527)" />
  <polyline
     points=""
     stroke="#000000"
     stroke-width="15px"
     stroke-miterlimit="8"
     fill="#000000"
     id="polyline111" />
  <polyline
     points=" 5850,675 5862,675 5871,674 5883,674 5898,674 5917,673 5940,672 5967,672 5999,671  6036,670 6078,668 6125,667 6178,666 6235,664 6297,662 6365,660 6437,658 6514,656  6596,654 6682,652 6772,650 6865,647 6963,645 7063,642 7166,640 7272,637 7379,635  7489,632 7599,630 7711,628 7823,626 7935,623 8047,621 8159,619 8270,618 8380,616  8488,615 8595,613 8700,612 8804,611 8905,611 9003,610 9099,610 9193,610 9284,611  9372,611 9457,612 9539,613 9618,615 9695,617 9768,619 9839,621 9906,624 9971,628  10033,631 10092,635 10149,640 10203,645 10255,650 10304,655 10351,662 10397,668  10440,675 10508,687 10572,701 10631,715 10687,730 10739,745 10786,761 10831,777  10872,794 10909,810 10944,827 10976,844 11006,861 11033,879 11058,896 11081,913  11102,931 11122,949 11141,967 11158,985 11175,1004 11191,1023 11206,1043 11221,1064  11236,1085 11250,1107 11265,1130 11279,1154 11294,1180 11309,1207 11324,1235  11339,1264 11355,1296 11371,1329 11386,1364 11402,1401 11418,1440 11433,1481  11448,1525 11462,1571 11475,1620 11484,1658 11492,1697 11499,1738 11506,1781  11512,1825 11517,1871 11522,1918 11526,1968 11530,2019 11533,2071 11536,2126  11538,2182 11539,2239 11541,2298 11541,2358 11542,2420 11542,2482 11541,2546  11541,2611 11540,2677 11538,2743 11537,2811 11535,2879 11533,2947 11531,3016  11529,3085 11526,3154 11524,3223 11521,3292 11518,3361 11515,3430 11512,3497  11509,3565 11506,3631 11503,3697 11500,3762 11497,3825 11493,3888 11490,3949  11487,4009 11483,4068 11480,4125 11476,4180 11473,4234 11469,4287 11465,4337  11462,4386 11458,4433 11454,4479 11449,4522 11445,4564 11440,4604 11435,4643  11430,4680 11420,4743 11408,4801 11396,4855 11383,4904 11369,4949 11355,4991  11340,5029 11324,5064 11308,5096 11292,5126 11275,5153 11258,5179 11240,5203  11222,5225 11204,5247 11186,5267 11167,5287 11148,5307 11129,5326 11110,5346  11090,5365 11070,5385 11049,5404 11028,5424 11007,5443 10985,5463 10962,5482  10939,5501 10915,5518 10890,5535 10864,5550 10836,5563 10807,5575 10776,5585  10742,5594 10706,5602 10668,5608 10627,5614 10583,5618 10537,5622 10489,5625  10440,5627 10389,5629 10337,5630 10285,5630 10235,5630 10185,5630 10138,5630  10094,5629 10054,5629 10018,5628 9987,5627 9961,5627 9940,5626 9924,5626 9913,5625  9906,5625 9902,5625 9900,5625"
     clip-path="url(#cp11)"
     stroke="#000000"
     stroke-width="15px"
     stroke-linejoin="bevel"
     id="polyline118"
     style="fill:none" />
  <polygon
     points="6190,735 6130,675 6190,615 5890,675 "
     stroke="#000000"
     stroke-width="15px"
     stroke-miterlimit="8"
     fill="#000000"
     id="polygon120" />
  <text
     xml:space="preserve"
     x="1350"
     y="765"
     fill="#000000"
     font-family="Helvetica"
     font-style="normal"
     font-weight="bold"
     font-size="192px"
     text-anchor="middle"
     id="text122">INIT-REBOOT</text>
  <text
     xml:space="preserve"
     x="4950"
     y="765"
     fill="#000000"
     font-family="Helvetica"
     font-style="normal"
     font-weight="bold"
     font-size="192px"
     text-anchor="middle"
     id="text124">INIT</text>
  <text
     xml:space="preserve"
     x="4950"
     y="3015"
     fill="#000000"
     font-family="Helvetica"
     font-style="normal"
     font-weight="bold"
     font-size="192px"
     text-anchor="middle"
     id="text126">SELECTING</text>
  <text
     xml:space="preserve"
     x="9000"
     y="5715"
     fill="#000000"
     font-family="Helvetica"
     font-style="normal"
     font-weight="bold"
     font-size="192px"
     text-anchor="middle"
     id="text128">RENEWING</text>
  <text
     xml:space="preserve"
     x="4950"
     y="5715"
     fill="#000000"
     font-family="Helvetica"
     font-style="normal"
     font-weight="bold"
     font-size="192px"
     text-anchor="middle"
     id="text130">BOUND</text>
  <text
     xml:space="preserve"
     x="9000"
     y="3015"
     fill="#000000"
     font-family="Helvetica"
     font-style="normal"
     font-weight="bold"
     font-size="192px"
     text-anchor="middle"
     id="text132">REBINDING</text>
  <text
     xml:space="preserve"
     x="4815"
     y="1575"
     fill="#000000"
     font-family="Helvetica"
     font-style="normal"
     font-weight="bold"
     font-size="192px"
     text-anchor="end"
     id="text134">DHCPDISCOVER/</text>
  <text
     xml:space="preserve"
     x="4815"
     y="1875"
     fill="#000000"
     font-family="Helvetica"
     font-style="normal"
     font-weight="bold"
     font-size="192px"
     text-anchor="end"
     id="text136">DHCPOFFER</text>
  <text
     xml:space="preserve"
     x="7245"
     y="3510"
     fill="#000000"
     font-family="Helvetica"
     font-style="normal"
     font-weight="bold"
     font-size="192px"
     text-anchor="middle"
     id="text138">DHCPACK</text>
  <text
     xml:space="preserve"
     x="2520"
     y="4995"
     fill="#000000"
     font-family="Helvetica"
     font-style="normal"
     font-weight="bold"
     font-size="192px"
     text-anchor="end"
     id="text140">DHCPREQUEST/</text>
  <text
     xml:space="preserve"
     x="4860"
     y="4185"
     fill="#000000"
     font-family="Helvetica"
     font-style="normal"
     font-weight="bold"
     font-size="192px"
     text-anchor="end"
     id="text142">DHCPACK</text>
  <text
     xml:space="preserve"
     x="4860"
     y="3870"
     fill="#000000"
     font-family="Helvetica"
     font-style="normal"
     font-weight="bold"
     font-size="192px"
     text-anchor="end"
     id="text144">DHCPREQUEST/</text>
  <text
     xml:space="preserve"
     x="2835"
     y="5295"
     fill="#000000"
     font-family="Helvetica"
     font-style="normal"
     font-weight="bold"
     font-size="192px"
     text-anchor="end"
     id="text146">DHCPACK</text>
  <text
     xml:space="preserve"
     x="1215"
     y="1305"
     fill="#000000"
     font-family="Helvetica"
     font-style="normal"
     font-weight="bold"
     font-size="144px"
     text-anchor="end"
     id="text148">Boot</text>
  <text
     xml:space="preserve"
     x="1215"
     y="1530"
     fill="#000000"
     font-family="Helvetica"
     font-style="normal"
     font-weight="bold"
     font-size="144px"
     text-anchor="end"
     id="text150">before</text>
  <text
     xml:space="preserve"
     x="1215"
     y="1755"
     fill="#000000"
     font-family="Helvetica"
     font-style="normal"
     font-weight="bold"
     font-size="144px"
     text-anchor="end"
     id="text152">lease</text>
  <text
     xml:space="preserve"
     x="1215"
     y="1980"
     fill="#000000"
     font-family="Helvetica"
     font-style="normal"
     font-weight="bold"
     font-size="144px"
     text-anchor="end"
     id="text154">expires</text>
  <text
     xml:space="preserve"
     x="8460"
     y="6120"
     fill="#000000"
     font-family="Helvetica"
     font-style="normal"
     font-weight="bold"
     font-size="144px"
     text-anchor="start"
     id="text156">At T1, renew</text>
  <text
     xml:space="preserve"
     x="8460"
     y="6345"
     fill="#000000"
     font-family="Helvetica"
     font-style="normal"
     font-weight="bold"
     font-size="144px"
     text-anchor="start"
     id="text158">using unicasts</text>
  <text
     xml:space="preserve"
     x="4410"
     y="6120"
     fill="#000000"
     font-family="Helvetica"
     font-style="normal"
     font-weight="bold"
     font-size="144px"
     text-anchor="start"
     id="text160">Has IP address</text>
  <text
     xml:space="preserve"
     x="3960"
     y="3060"
     fill="#000000"
     font-family="Helvetica"
     font-style="normal"
     font-weight="bold"
     font-size="144px"
     text-anchor="end"
     id="text162">an address</text>
  <text
     xml:space="preserve"
     x="3960"
     y="2835"
     fill="#000000"
     font-family="Helvetica"
     font-style="normal"
     font-weight="bold"
     font-size="144px"
     text-anchor="end"
     id="text164">Has been offered</text>
  <text
     xml:space="preserve"
     x="9180"
     y="3420"
     fill="#000000"
     font-family="Helvetica"
     font-style="normal"
     font-weight="bold"
     font-size="144px"
     text-anchor="start"
     id="text166">At T2, begin</text>
  <text
     xml:space="preserve"
     x="9180"
     y="3645"
     fill="#000000"
     font-family="Helvetica"
     font-style="normal"
     font-weight="bold"
     font-size="144px"
     text-anchor="start"
     id="text168">broadcasting</text>
  <text
     xml:space="preserve"
     x="9180"
     y="4095"
     fill="#000000"
     font-family="Helvetica"
     font-style="normal"
     font-weight="bold"
     font-size="144px"
     text-anchor="start"
     id="text170">DHCP servers</text>
  <text
     xml:space="preserve"
     x="9180"
     y="3870"
     fill="#000000"
     font-family="Helvetica"
     font-style="normal"
     font-weight="bold"
     font-size="144px"
     text-anchor="start"
     id="text172">requests to all</text>
  <text
     xml:space="preserve"
     x="9090"
     y="4590"
     fill="#000000"
     font-family="Helvetica"
     font-style="normal"
     font-weight="bold"
     font-size="192px"
     text-anchor="start"
     id="text174">DHCPREQUEST</text>
  <text
     xml:space="preserve"
     x="6975"
     y="6165"
     fill="#000000"
     font-family="Helvetica"
     font-style="normal"
     font-weight="bold"
     font-size="144px"
     text-anchor="middle"
     id="text176">unicast</text>
  <text
     xml:space="preserve"
     x="6975"
     y="5940"
     fill="#000000"
     font-family="Helvetica"
     font-style="normal"
     font-weight="bold"
     font-size="192px"
     text-anchor="middle"
     id="text178">DHCPREQUEST</text>
  <text
     xml:space="preserve"
     x="9090"
     y="4815"
     fill="#000000"
     font-family="Helvetica"
     font-style="normal"
     font-weight="bold"
     font-size="144px"
     text-anchor="start"
     id="text180">broadcast</text>
  <text
     xml:space="preserve"
     x="4815"
     y="2070"
     fill="#000000"
     font-family="Helvetica"
     font-style="normal"
     font-weight="bold"
     font-size="144px"
     text-anchor="end"
     id="text182">broadcast</text>
  <text
     xml:space="preserve"
     x="7245"
     y="3690"
     fill="#000000"
     font-family="Helvetica"
     font-style="normal"
     font-weight="bold"
     font-size="144px"
     text-anchor="middle"
     id="text184">broadcast</text>
  <text
     xml:space="preserve"
     x="2970"
     y="585"
     fill="#000000"
     font-family="Helvetica"
     font-style="normal"
     font-weight="bold"
     font-size="192px"
     text-anchor="middle"
     id="text186">DHCPNAK</text>
  <text
     xml:space="preserve"
     x="2970"
     y="270"
     fill="#000000"
     font-family="Helvetica"
     font-style="normal"
     font-weight="bold"
     font-size="192px"
     text-anchor="middle"
     id="text188">DHCPREQUEST/</text>
  <text
     xml:space="preserve"
     x="2970"
     y="855"
     fill="#000000"
     font-family="Helvetica"
     font-style="normal"
     font-weight="bold"
     font-size="144px"
     text-anchor="middle"
     id="text190">broadcast</text>
  <text
     xml:space="preserve"
     x="1395"
     y="4455"
     fill="#000000"
     font-family="Helvetica"
     font-style="normal"
     font-weight="bold"
     font-size="144px"
     text-anchor="end"
     id="text192">client request</text>
  <text
     xml:space="preserve"
     x="1575"
     y="5850"
     fill="#000000"
     font-family="Helvetica"
     font-style="normal"
     font-weight="bold"
     font-size="144px"
     text-anchor="end"
     id="text194">server response</text>
  <text
     xml:space="preserve"
     x="4500"
     y="180"
     fill="#000000"
     font-family="Helvetica"
     font-style="normal"
     font-weight="bold"
     font-size="144px"
     text-anchor="start"
     id="text196">Boot after</text>
  <text
     xml:space="preserve"
     x="4365"
     y="360"
     fill="#000000"
     font-family="Helvetica"
     font-style="normal"
     font-weight="bold"
     font-size="144px"
     text-anchor="start"
     id="text198">lease expires</text>
  <text
     xml:space="preserve"
     x="7245"
     y="3915"
     fill="#000000"
     font-family="Helvetica"
     font-style="normal"
     font-weight="bold"
     font-size="144px"
     text-anchor="middle"
     id="text200">set timers T1, T2</text>
  <text
     xml:space="preserve"
     x="6975"
     y="4905"
     fill="#000000"
     font-family="Helvetica"
     font-style="normal"
     font-weight="bold"
     font-size="144px"
     text-anchor="middle"
     id="text202">set timers T1, T2</text>
  <text
     xml:space="preserve"
     x="6975"
     y="5175"
     fill="#000000"
     font-family="Helvetica"
     font-style="normal"
     font-weight="bold"
     font-size="144px"
     text-anchor="middle"
     id="text204">unicast</text>
  <text
     xml:space="preserve"
     x="6975"
     y="4725"
     fill="#000000"
     font-family="Helvetica"
     font-style="normal"
     font-weight="bold"
     font-size="192px"
     text-anchor="middle"
     id="text206">DHCPACK</text>
  <text
     xml:space="preserve"
     x="1350"
     y="4725"
     fill="#000000"
     font-family="Helvetica"
     font-style="normal"
     font-weight="bold"
     font-size="144px"
     text-anchor="end"
     id="text208">broadcast</text>
  <text
     xml:space="preserve"
     x="2610"
     y="5535"
     fill="#000000"
     font-family="Helvetica"
     font-style="normal"
     font-weight="bold"
     font-size="144px"
     text-anchor="middle"
     id="text210">set timers T1, T2</text>
  <text
     xml:space="preserve"
     x="4815"
     y="3600"
     fill="#000000"
     font-family="Helvetica"
     font-style="normal"
     font-weight="bold"
     font-size="144px"
     text-anchor="end"
     id="text212">broadcast</text>
  <text
     xml:space="preserve"
     x="4050"
     y="4410"
     fill="#000000"
     font-family="Helvetica"
     font-style="normal"
     font-weight="bold"
     font-size="144px"
     text-anchor="middle"
     id="text214">set timers T1, T2</text>
  <text
     xml:space="preserve"
     x="6975"
     y="6435"
     fill="#000000"
     font-family="Helvetica"
     font-style="normal"
     font-weight="bold"
     font-size="144px"
     text-anchor="middle"
     id="text216">T1 expires</text>
  <text
     xml:space="preserve"
     x="8550"
     y="540"
     fill="#000000"
     font-family="Helvetica"
     font-style="normal"
     font-weight="bold"
     font-size="192px"
     text-anchor="middle"
     id="text218">DHCPNAK</text>
  <text
     xml:space="preserve"
     x="8595"
     y="810"
     fill="#000000"
     font-family="Helvetica"
     font-style="normal"
     font-weight="bold"
     font-size="144px"
     text-anchor="middle"
     id="text220">Halt network</text>
  <text
     xml:space="preserve"
     x="6210"
     y="1710"
     fill="#000000"
     font-family="Helvetica"
     font-style="normal"
     font-weight="bold"
     font-size="192px"
     text-anchor="start"
     id="text222">no response from server, lease expired</text>
  <text
     xml:space="preserve"
     x="6210"
     y="1485"
     fill="#000000"
     font-family="Helvetica"
     font-style="normal"
     font-weight="bold"
     font-size="192px"
     text-anchor="start"
     id="text224">DHCPNAK,</text>
</svg>
