<svg xmlns="http://www.w3.org/2000/svg" xmlns:xlink="http://www.w3.org/1999/xlink" width="946.105" height="167.105" xmlns:v="https://vecta.io/nano"><style><![CDATA[.B{font-size:14px}.C{text-anchor:middle}.D{fill:#000}.E{font-family:Arial}.F{writing-mode:lr-tb}.G{font-weight:bold}.H{stroke:#000}.I{stroke-linejoin:round}.J{stroke-width:2}.K{font-size:16px}.L{font-weight:400}]]></style><defs><linearGradient id="A" xlink:href="#K"><stop offset="0" stop-color="#fff"/><stop offset="0" stop-color="#fff"/><stop offset="1" stop-color="#e6e6e6"/></linearGradient><linearGradient id="B" xlink:href="#K"><stop offset="0" stop-color="#fff"/><stop offset="0" stop-color="#fff"/><stop offset="1" stop-color="#bcdcff"/></linearGradient><linearGradient x1="-1051.951" y1="473.077" x2="-885.698" y2="473.077" id="C" xlink:href="#A"/><linearGradient x1="-1000.185" y1="678.545" x2="-896.424" y2="678.545" id="D" xlink:href="#A"/><linearGradient x1="-1000.185" y1="283.081" x2="-896.424" y2="283.081" id="E" xlink:href="#A"/><linearGradient x1="-950.432" y1="678.018" x2="-905.264" y2="678.018" id="F" xlink:href="#K"><stop offset="0" stop-color="#fff"/><stop offset="0" stop-color="#fff"/><stop offset="1" stop-color="#fcffbc"/></linearGradient><linearGradient x1="-950.432" y1="493.085" x2="-905.264" y2="493.085" id="G" xlink:href="#K"><stop offset="0" stop-color="#fff"/><stop offset="0" stop-color="#fff"/><stop offset="1" stop-color="#ffbcbc"/></linearGradient><linearGradient x1="-950.432" y1="133.098" x2="-905.264" y2="133.098" id="H" xlink:href="#B"/><linearGradient x1="-950.432" y1="343.098" x2="-905.264" y2="343.098" id="I" xlink:href="#K"><stop offset="0" stop-color="#fff"/><stop offset="0" stop-color="#fff"/><stop offset="1" stop-color="#ceffbc"/></linearGradient><linearGradient x1="-950.432" y1="868.067" x2="-905.264" y2="868.067" id="J" xlink:href="#B"/><linearGradient id="K" gradientUnits="userSpaceOnUse"/></defs><g transform="translate(0 -885.257)"><text x="-554.286" y="163.791" xml:space="preserve" class="B C D E F"><tspan x="-554.286" y="163.791">3a</tspan></text><g transform="rotate(270)" class="H I"><rect width="166.105" height="945.105" rx="2" x="-1051.862" y=".5" fill="url(#C)" stroke-opacity=".502"/><rect width="103.636" height="540.636" rx="5" x="-1000.128" y="12.78" fill="url(#E)" stroke-width="1.5"/><path d="M-950.408 33.545h45.105V232.65h-45.105z" fill="url(#H)" class="J"/></g><text x="5" y="406.366" xml:space="preserve" class="B C D E F"><tspan x="62.098" y="921.859">80</tspan></text><text x="32.865" y="406.366" xml:space="preserve" class="B C D E F"><tspan x="89.963" y="921.859">00</tspan></text><text x="60.73" y="406.366" xml:space="preserve" class="B C D E F"><tspan x="117.828" y="921.859">20</tspan></text><text x="89.375" y="406.431" xml:space="preserve" class="B C D E F"><tspan x="146.473" y="921.924">7A</tspan></text><text x="116.843" y="406.362" xml:space="preserve" class="B C D E F"><tspan x="173.941" y="921.855">3F</tspan></text><text x="145.105" y="406.362" xml:space="preserve" class="B C D E F"><tspan x="202.203" y="921.855">3E</tspan></text><text x="133.187" y="938.855" xml:space="preserve" class="B C D E F"><tspan x="133.187" y="938.855" class="G">Destination MAC Address</tspan></text><path transform="rotate(270)" d="M-950.408 243.545h45.105v199.105h-45.105z" fill="url(#I)" class="H I J"/><text x="5" y="406.366" xml:space="preserve" class="B C D E F"><tspan x="272.098" y="921.859">80</tspan></text><text x="32.865" y="406.366" xml:space="preserve" class="B C D E F"><tspan x="299.963" y="921.859">00</tspan></text><text x="60.73" y="406.366" xml:space="preserve" class="B C D E F"><tspan x="327.828" y="921.859">20</tspan></text><text x="89.375" y="406.431" xml:space="preserve" class="B C D E F"><tspan x="356.473" y="921.924">20</tspan></text><text x="116.843" y="406.362" xml:space="preserve" class="B C D E F"><tspan x="383.941" y="921.855">3A</tspan></text><text x="145.105" y="406.362" xml:space="preserve" class="B C D E F"><tspan x="412.203" y="921.855">AE</tspan></text><text x="343.187" y="938.855" xml:space="preserve" class="B C D E F"><tspan x="343.187" y="938.855" class="G">Source MAC Address</tspan></text><path transform="rotate(270)" d="M-950.408 453.545h45.105v79.105h-45.105z" fill="url(#G)" class="H I J"/><text x="477.828" y="921.859" xml:space="preserve" writing-mode="lr" class="B C D E"><tspan x="477.828" y="921.859">08</tspan></text><text x="506.473" y="921.924" xml:space="preserve" class="B C D E F"><tspan x="506.473" y="921.924">00</tspan></text><text x="493.187" y="938.855" xml:space="preserve" class="B C D E F"><tspan x="493.187" y="938.855" class="G">EtherType</tspan></text><text x="282.426" y="971.855" xml:space="preserve" class="B C D E F"><tspan x="282.426" y="971.855" class="G K">MAC Header</tspan><tspan x="282.426" y="986.281" font-weight="normal">(14 bytes)</tspan></text><g transform="rotate(270)" class="H I"><rect width="103.636" height="228.636" rx="5" x="-1000.128" y="564.208" fill="url(#D)" stroke-width="1.5"/><path d="M-950.408 578.466h45.105v199.105h-45.105z" fill="url(#F)" class="J"/></g><text x="677.97" y="921.924" xml:space="preserve" class="B C D E F"><tspan x="677.97" y="921.924">IP, ARP, etc.</tspan></text><text x="678.107" y="938.855" xml:space="preserve" class="B C D E F"><tspan x="678.107" y="938.855" class="G">Payload</tspan></text><text x="677.854" y="971.855" xml:space="preserve" class="B C D E F"><tspan x="677.854" y="971.855" class="G K">Data</tspan><tspan x="677.854" y="986.281" font-weight="normal">(46 - 1500 bytes)</tspan></text><path transform="rotate(270)" d="M-950.408 803.5h45.105v129.105h-45.105z" fill="url(#J)" class="H I J"/><text x="793.865" y="497.911" xml:space="preserve" class="B C D E F"><tspan x="824.918" y="921.859">00</tspan></text><text x="821.73" y="497.911" xml:space="preserve" class="B C D E F"><tspan x="852.783" y="921.859">20</tspan></text><text x="850.375" y="497.976" xml:space="preserve" class="B C D E F"><tspan x="881.428" y="921.924">20</tspan></text><text x="877.843" y="497.907" xml:space="preserve" class="B C D E F"><tspan x="908.896" y="921.855">3A</tspan></text><text x="837.089" y="514.907" xml:space="preserve" class="B C D E F"><tspan x="868.142" y="938.855" class="G">CRC Checksum</tspan></text><text x="472.771" y="1025.31" xml:space="preserve" class="B C D E F"><tspan x="472.771" y="1025.31" class="G K">Ethernet Type II Frame</tspan><tspan x="472.771" y="1039.736">(64 to 1518 bytes)</tspan></text><text x="867.381" y="971.953" xml:space="preserve" class="B C D E F"><tspan x="867.381" y="986.378" font-weight="normal">(4 bytes)</tspan></text></g></svg>