<?xml version="1.0" encoding="UTF-8" standalone="no"?>
<!-- Created with Inkscape (http://www.inkscape.org/) -->

<svg
   width="75.276543mm"
   height="73.947624mm"
   viewBox="0 0 75.276543 73.947624"
   version="1.1"
   id="svg5"
   sodipodi:docname="3.svg"
   inkscape:version="1.1 (c4e8f9ed74, 2021-05-24)"
   xmlns:inkscape="http://www.inkscape.org/namespaces/inkscape"
   xmlns:sodipodi="http://sodipodi.sourceforge.net/DTD/sodipodi-0.dtd"
   xmlns="http://www.w3.org/2000/svg"
   xmlns:svg="http://www.w3.org/2000/svg"
   xmlns:ns0="http://www.iki.fi/pav/software/textext/">
  <sodipodi:namedview
     id="namedview7"
     pagecolor="#ffffff"
     bordercolor="#666666"
     borderopacity="1.0"
     inkscape:pageshadow="2"
     inkscape:pageopacity="0.0"
     inkscape:pagecheckerboard="0"
     inkscape:document-units="mm"
     showgrid="false"
     inkscape:zoom="1.3416246"
     inkscape:cx="95.779402"
     inkscape:cy="105.09646"
     inkscape:window-width="1918"
     inkscape:window-height="1038"
     inkscape:window-x="0"
     inkscape:window-y="20"
     inkscape:window-maximized="1"
     inkscape:current-layer="layer1">
    <inkscape:grid
       type="xygrid"
       id="grid958"
       originx="-57.536525"
       originy="-110.60359" />
  </sodipodi:namedview>
  <defs
     id="defs2">
    <inkscape:path-effect
       effect="spiro"
       id="path-effect2472"
       is_visible="true"
       lpeversion="1" />
    <marker
       style="overflow:visible"
       id="Arrow1Mend"
       refX="0"
       refY="0"
       orient="auto"
       inkscape:stockid="Arrow1Mend"
       inkscape:isstock="true">
      <path
         transform="matrix(-0.4,0,0,-0.4,-4,0)"
         style="fill:context-stroke;fill-rule:evenodd;stroke:context-stroke;stroke-width:1pt"
         d="M 0,0 5,-5 -12.5,0 5,5 Z"
         id="path1306" />
    </marker>
    <marker
       style="overflow:visible"
       id="Arrow1Lend"
       refX="0"
       refY="0"
       orient="auto"
       inkscape:stockid="Arrow1Lend"
       inkscape:isstock="true">
      <path
         transform="matrix(-0.8,0,0,-0.8,-10,0)"
         style="fill:context-stroke;fill-rule:evenodd;stroke:context-stroke;stroke-width:1pt"
         d="M 0,0 5,-5 -12.5,0 5,5 Z"
         id="path1300" />
    </marker>
    <inkscape:path-effect
       effect="spiro"
       id="path-effect1215"
       is_visible="true"
       lpeversion="1" />
    <inkscape:path-effect
       effect="spiro"
       id="path-effect1211"
       is_visible="true"
       lpeversion="1" />
    <inkscape:path-effect
       effect="spiro"
       id="path-effect1207"
       is_visible="true"
       lpeversion="1" />
  </defs>
  <g
     inkscape:label="Layer 1"
     inkscape:groupmode="layer"
     id="layer1"
     transform="translate(-57.536525,-110.60359)">
    <path
       style="fill:none;stroke:#000000;stroke-width:0.264583px;stroke-linecap:butt;stroke-linejoin:miter;stroke-opacity:1;marker-end:url(#Arrow1Mend)"
       d="M 58.208333,179.91666 V 111.125"
       id="path1205"
       inkscape:path-effect="#path-effect1207"
       inkscape:original-d="m 58.208333,179.91666 c 2.64e-4,-22.93029 2.64e-4,-45.86084 0,-68.79166" />
    <path
       style="fill:none;stroke:#000000;stroke-width:0.264583px;stroke-linecap:butt;stroke-linejoin:miter;stroke-opacity:1;marker-end:url(#Arrow1Mend)"
       d="M 58.208333,179.91666 H 132.29166"
       id="path1209"
       inkscape:path-effect="#path-effect1211"
       inkscape:original-d="m 58.208333,179.91666 c 24.694707,2.7e-4 49.389157,2.7e-4 74.083327,0" />
    <path
       style="fill:none;stroke:#000000;stroke-width:0.264583px;stroke-linecap:butt;stroke-linejoin:miter;stroke-opacity:1"
       d="m 63.499999,127 c -0.313356,9.76873 3.619363,19.60053 10.583333,26.45833 1.441542,1.41957 3.016192,2.7236 4.792741,3.69163 1.776549,0.96803 3.767442,1.59171 5.790593,1.60004 0.441062,0.002 0.882578,-0.0253 1.322916,0 1.125023,0.0647 2.212283,0.47347 3.174589,1.05984 0.962307,0.58637 1.807875,1.34652 2.593129,2.15475 1.570506,1.61647 2.946976,3.46289 4.815615,4.72291 2.100484,1.41635 4.702135,1.98251 7.233305,1.87635 2.53117,-0.10616 5.00195,-0.85147 7.31878,-1.87635 5.57329,-2.46541 10.39125,-6.6089 13.6631,-11.75038 3.27185,-5.14148 4.98481,-11.26087 4.85773,-17.35379"
       id="path1213"
       inkscape:path-effect="#path-effect1215"
       inkscape:original-d="m 63.499999,127 c 3.528042,8.81971 7.055821,17.63915 10.583333,26.45833 3.527513,8.81918 7.055821,3.52804 10.583334,5.29167 3.527512,1.76362 0.882208,2.6e-4 1.322916,0 0.440709,-2.7e-4 7.055821,5.29193 10.583333,7.9375 3.527515,2.64557 9.701655,2.6e-4 14.552085,0 4.85043,-2.7e-4 12.34749,-19.40251 18.52083,-29.10417" />
    <circle
       style="fill:#ff0000;stroke:#ff0000;stroke-width:0.201197"
       id="path1609"
       cx="84.644646"
       cy="158.7265"
       r="0.5022046" />
    <g
       transform="matrix(0.352778,0,0,0.36600721,86.985999,147.92576)"
       ns0:version="1.4.0"
       ns0:texconverter="pdflatex"
       ns0:pdfconverter="inkscape"
       ns0:text="f'(x') = 0"
       ns0:preamble="/home/iliayar/.config/inkscape/extensions/inkscapeMadeEasy/basicLatexPackages.tex"
       ns0:scale="1.0"
       ns0:alignment="middle center"
       ns0:jacobian_sqrt="0.352778"
       id="g1760"
       style="paint-order:stroke fill markers">
      <defs
         id="id-46c5659f-fe3f-40aa-bc98-48c414fe3bf1">
        <g
           id="id-ce30fdd7-e3f7-4eda-8559-3e1bd9a178ef">
          <symbol
             overflow="visible"
             id="id-df3676ae-1d61-4793-8e87-6cacb5ee29fa">
            <path
               style="stroke:none;stroke-width:0"
               d=""
               id="id-86eb7098-f1dd-44b2-b449-f7118cd0c5b1" />
          </symbol>
          <symbol
             overflow="visible"
             id="id-b3077d84-122e-47d1-91e0-b40f671546f8">
            <path
               style="stroke:none;stroke-width:0"
               d="m 1.75,-4.296875 v -1.15625 c 0,-0.875 0.46875,-1.359375 0.90625,-1.359375 0.03125,0 0.1875,0 0.328125,0.078125 C 2.875,-6.703125 2.6875,-6.5625 2.6875,-6.3125 c 0,0.21875 0.15625,0.421875 0.4375,0.421875 0.28125,0 0.4375,-0.203125 0.4375,-0.4375 0,-0.375 -0.375,-0.703125 -0.90625,-0.703125 -0.6875,0 -1.546875,0.53125 -1.546875,1.59375 v 1.140625 h -0.78125 v 0.3125 h 0.78125 V -0.75 C 1.109375,-0.3125 1,-0.3125 0.34375,-0.3125 V 0 c 0.390625,-0.015625 0.859375,-0.03125 1.125,-0.03125 0.40625,0 0.875,0 1.265625,0.03125 V -0.3125 H 2.53125 c -0.734375,0 -0.75,-0.109375 -0.75,-0.46875 v -3.203125 h 1.125 v -0.3125 z m 0,0"
               id="id-3c2e16b4-70ab-4282-b6fd-3514612af600" />
          </symbol>
          <symbol
             overflow="visible"
             id="id-0f5b18dd-f575-4306-a74e-45f33932081c">
            <path
               style="stroke:none;stroke-width:0"
               d="m 2.046875,-5.875 c 0,-0.59375 -0.234375,-1.046875 -0.65625,-1.046875 -0.359375,0 -0.53125,0.265625 -0.53125,0.53125 0,0.265625 0.171875,0.53125 0.53125,0.53125 0.1875,0 0.328125,-0.109375 0.390625,-0.15625 0.015625,-0.03125 0.015625,-0.03125 0.03125,-0.03125 0.015625,0 0.015625,0.140625 0.015625,0.171875 0,0.328125 -0.0625,1.046875 -0.6875,1.65625 -0.125,0.125 -0.125,0.140625 -0.125,0.171875 0,0.0625 0.046875,0.109375 0.09375,0.109375 0.109375,0 0.9375,-0.75 0.9375,-1.9375 z m 0,0"
               id="id-c5c7ab3c-54b2-49a0-928d-ce0b87ac2180" />
          </symbol>
          <symbol
             overflow="visible"
             id="id-3c835a9d-9cec-478c-b921-b98de45930be">
            <path
               style="stroke:none;stroke-width:0"
               d="m 3.296875,2.390625 c 0,-0.03125 0,-0.046875 -0.171875,-0.21875 C 1.890625,0.921875 1.5625,-0.96875 1.5625,-2.5 c 0,-1.734375 0.375,-3.46875 1.609375,-4.703125 0.125,-0.125 0.125,-0.140625 0.125,-0.171875 0,-0.078125 -0.03125,-0.109375 -0.09375,-0.109375 -0.109375,0 -1,0.6875 -1.59375,1.953125 -0.5,1.09375 -0.625,2.203125 -0.625,3.03125 0,0.78125 0.109375,1.984375 0.65625,3.125 C 2.25,1.84375 3.09375,2.5 3.203125,2.5 c 0.0625,0 0.09375,-0.03125 0.09375,-0.109375 z m 0,0"
               id="id-17d2c6df-09f1-4a89-a14e-0a22339857fe" />
          </symbol>
          <symbol
             overflow="visible"
             id="id-e165d347-73aa-45a3-bdfd-1d9427e7662c">
            <path
               style="stroke:none;stroke-width:0"
               d="M 2.859375,-2.34375 C 3.15625,-2.71875 3.53125,-3.203125 3.78125,-3.46875 4.09375,-3.828125 4.5,-3.984375 4.96875,-3.984375 v -0.3125 c -0.265625,0.015625 -0.5625,0.03125 -0.828125,0.03125 -0.296875,0 -0.828125,-0.015625 -0.953125,-0.03125 v 0.3125 c 0.21875,0.015625 0.296875,0.140625 0.296875,0.3125 0,0.15625 -0.109375,0.28125 -0.15625,0.34375 L 2.71875,-2.546875 1.9375,-3.5625 C 1.84375,-3.65625 1.84375,-3.671875 1.84375,-3.734375 c 0,-0.15625 0.15625,-0.25 0.34375,-0.25 v -0.3125 c -0.25,0.015625 -0.90625,0.03125 -1.078125,0.03125 -0.203125,0 -0.671875,-0.015625 -0.9375,-0.03125 v 0.3125 c 0.703125,0 0.703125,0 1.171875,0.609375 l 0.984375,1.28125 -0.9375,1.1875 C 0.921875,-0.328125 0.328125,-0.3125 0.125,-0.3125 V 0 c 0.25,-0.015625 0.5625,-0.03125 0.828125,-0.03125 0.28125,0 0.703125,0.015625 0.9375,0.03125 v -0.3125 c -0.21875,-0.03125 -0.28125,-0.15625 -0.28125,-0.3125 0,-0.21875 0.28125,-0.546875 0.890625,-1.265625 l 0.765625,1 C 3.34375,-0.78125 3.46875,-0.625 3.46875,-0.5625 c 0,0.09375 -0.09375,0.25 -0.359375,0.25 V 0 C 3.40625,-0.015625 3.96875,-0.03125 4.1875,-0.03125 c 0.265625,0 0.65625,0.015625 0.953125,0.03125 v -0.3125 c -0.53125,0 -0.71875,-0.015625 -0.9375,-0.3125 z m 0,0"
               id="id-6458be8e-10c1-49bb-a973-63162257bdcf" />
          </symbol>
          <symbol
             overflow="visible"
             id="id-71f5f60a-b33b-4b95-b5c7-5a855fe49b89">
            <path
               style="stroke:none;stroke-width:0"
               d="m 2.875,-2.5 c 0,-0.765625 -0.109375,-1.96875 -0.65625,-3.109375 -0.59375,-1.21875 -1.453125,-1.875 -1.546875,-1.875 -0.0625,0 -0.109375,0.046875 -0.109375,0.109375 0,0.03125 0,0.046875 0.1875,0.234375 0.984375,0.984375 1.546875,2.5625 1.546875,4.640625 0,1.71875 -0.359375,3.46875 -1.59375,4.71875 C 0.5625,2.34375 0.5625,2.359375 0.5625,2.390625 0.5625,2.453125 0.609375,2.5 0.671875,2.5 0.765625,2.5 1.671875,1.8125 2.25,0.546875 2.765625,-0.546875 2.875,-1.65625 2.875,-2.5 Z m 0,0"
               id="id-49613cbe-cf09-4515-8287-122030cba49e" />
          </symbol>
          <symbol
             overflow="visible"
             id="id-e4f911b1-356a-4d7a-8977-5af52815c533">
            <path
               style="stroke:none;stroke-width:0"
               d="m 6.84375,-3.265625 c 0.15625,0 0.34375,0 0.34375,-0.1875 C 7.1875,-3.65625 7,-3.65625 6.859375,-3.65625 h -5.96875 c -0.140625,0 -0.328125,0 -0.328125,0.203125 0,0.1875 0.1875,0.1875 0.328125,0.1875 z m 0.015625,1.9375 c 0.140625,0 0.328125,0 0.328125,-0.203125 0,-0.1875 -0.1875,-0.1875 -0.34375,-0.1875 H 0.890625 c -0.140625,0 -0.328125,0 -0.328125,0.1875 0,0.203125 0.1875,0.203125 0.328125,0.203125 z m 0,0"
               id="id-b6b1d8a6-18d9-4bad-94c5-61144fcd8180" />
          </symbol>
          <symbol
             overflow="visible"
             id="id-fdea8024-71b7-49fc-bde3-3c8633766e05">
            <path
               style="stroke:none;stroke-width:0"
               d="m 4.578125,-3.1875 c 0,-0.796875 -0.046875,-1.59375 -0.390625,-2.328125 -0.453125,-0.96875 -1.28125,-1.125 -1.6875,-1.125 -0.609375,0 -1.328125,0.265625 -1.75,1.1875 -0.3125,0.6875 -0.359375,1.46875 -0.359375,2.265625 0,0.75 0.03125,1.640625 0.453125,2.40625 0.421875,0.796875 1.15625,1 1.640625,1 0.53125,0 1.296875,-0.203125 1.734375,-1.15625 0.3125,-0.6875 0.359375,-1.46875 0.359375,-2.25 z M 2.484375,0 C 2.09375,0 1.5,-0.25 1.328125,-1.203125 1.21875,-1.796875 1.21875,-2.71875 1.21875,-3.3125 c 0,-0.640625 0,-1.296875 0.078125,-1.828125 0.1875,-1.1875 0.9375,-1.28125 1.1875,-1.28125 0.328125,0 0.984375,0.1875 1.171875,1.171875 0.109375,0.5625 0.109375,1.3125 0.109375,1.9375 0,0.75 0,1.421875 -0.109375,2.0625 C 3.5,-0.296875 2.9375,0 2.484375,0 Z m 0,0"
               id="id-8426b5dd-4653-440d-940f-ef56e834327e" />
          </symbol>
        </g>
      </defs>
      <g
         id="id-75d49af7-34a2-497d-98c0-92d483a5b91c"
         transform="translate(-143.42237,-127.14427)"
         style="paint-order:stroke fill markers">
        <g
           style="fill:#000000;paint-order:stroke fill markers"
           id="id-fc9903bc-3323-4436-a4bd-16848cd51d2a">
          <path
             style="fill:none;stroke:#000000;stroke-width:0.50093;stroke-linecap:butt;stroke-linejoin:miter;stroke-miterlimit:4;stroke-dasharray:3.00558, 3.00558;stroke-dashoffset:0;stroke-opacity:1;paint-order:stroke fill markers"
             d="m 136.84789,156.71811 v 59.99996"
             id="path2470"
             inkscape:path-effect="#path-effect2472"
             inkscape:original-d="m 136.84789,156.71811 c 0,21.17645 0,38.8235 0,59.99996"
             sodipodi:nodetypes="cc" />
        </g>
      </g>
    </g>
    <g
       transform="matrix(0.51883961,0,0,0.51883961,85.310367,180.59954)"
       ns0:version="1.4.0"
       ns0:texconverter="pdflatex"
       ns0:pdfconverter="inkscape"
       ns0:text="\\(x'\\)"
       ns0:preamble="/home/iliayar/.config/inkscape/extensions/inkscapeMadeEasy/basicLatexPackages.tex"
       ns0:scale="1.0"
       ns0:alignment="middle center"
       ns0:jacobian_sqrt="0.352778"
       id="g3053">
      <defs
         id="id-8d611deb-55e1-4258-992f-78fdff7d6e6b">
        <g
           id="id-b3dbbea3-53e0-4276-84ee-5481f7fdb719">
          <symbol
             overflow="visible"
             id="id-c40041b3-e782-4157-a2cc-89038c3c5029">
            <path
               style="stroke:none;stroke-width:0"
               d=""
               id="id-038e0232-2060-4068-bb13-0491405e0866" />
          </symbol>
          <symbol
             overflow="visible"
             id="id-7d2d485d-de10-48a2-ba2e-f311a8603020">
            <path
               style="stroke:none;stroke-width:0"
               d="M 3.328125,-3.015625 C 3.390625,-3.265625 3.625,-4.1875 4.3125,-4.1875 c 0.046875,0 0.296875,0 0.5,0.125 C 4.53125,-4 4.34375,-3.765625 4.34375,-3.515625 c 0,0.15625 0.109375,0.34375 0.375,0.34375 0.21875,0 0.53125,-0.171875 0.53125,-0.578125 0,-0.515625 -0.578125,-0.65625 -0.921875,-0.65625 -0.578125,0 -0.921875,0.53125 -1.046875,0.75 -0.25,-0.65625 -0.78125,-0.75 -1.078125,-0.75 -1.03125,0 -1.609375,1.28125 -1.609375,1.53125 0,0.109375 0.109375,0.109375 0.125,0.109375 0.078125,0 0.109375,-0.03125 0.125,-0.109375 0.34375,-1.0625 1,-1.3125 1.34375,-1.3125 0.1875,0 0.53125,0.09375 0.53125,0.671875 0,0.3125 -0.171875,0.96875 -0.53125,2.375 -0.15625,0.609375 -0.515625,1.03125 -0.953125,1.03125 -0.0625,0 -0.28125,0 -0.5,-0.125 0.25,-0.0625 0.46875,-0.265625 0.46875,-0.546875 0,-0.265625 -0.21875,-0.34375 -0.359375,-0.34375 -0.3125,0 -0.546875,0.25 -0.546875,0.578125 0,0.453125 0.484375,0.65625 0.921875,0.65625 0.671875,0 1.03125,-0.703125 1.046875,-0.75 0.125,0.359375 0.484375,0.75 1.078125,0.75 1.03125,0 1.59375,-1.28125 1.59375,-1.53125 0,-0.109375 -0.078125,-0.109375 -0.109375,-0.109375 -0.09375,0 -0.109375,0.046875 -0.140625,0.109375 -0.328125,1.078125 -1,1.3125 -1.3125,1.3125 -0.390625,0 -0.546875,-0.3125 -0.546875,-0.65625 0,-0.21875 0.046875,-0.4375 0.15625,-0.875 z m 0,0"
               id="id-96814970-c478-4aa5-8c5e-c997c0a3a305" />
          </symbol>
          <symbol
             overflow="visible"
             id="id-da9a7f35-6f51-4334-9f28-533f417037bd">
            <path
               style="stroke:none;stroke-width:0"
               d=""
               id="id-499b8a07-6503-49e4-bd49-81a6fe499f32" />
          </symbol>
          <symbol
             overflow="visible"
             id="id-5850ec53-66a9-487e-ab48-3549d8e4a13c">
            <path
               style="stroke:none;stroke-width:0"
               d="m 2.015625,-3.296875 c 0.0625,-0.109375 0.0625,-0.171875 0.0625,-0.21875 0,-0.21875 -0.1875,-0.375 -0.40625,-0.375 -0.265625,0 -0.34375,0.21875 -0.375,0.328125 L 0.375,-0.546875 c -0.015625,0.015625 -0.046875,0.09375 -0.046875,0.109375 0,0.078125 0.21875,0.15625 0.28125,0.15625 0.046875,0 0.046875,-0.015625 0.09375,-0.125 z m 0,0"
               id="id-0ac6af74-ad15-4416-b6be-1d6d2121e787" />
          </symbol>
        </g>
      </defs>
      <g
         id="id-9e36d299-8305-49f4-a5f1-35015029ab46"
         transform="translate(-149.009,-127.258)">
        <g
           style="fill:#000000"
           id="id-f09b8dd0-93d2-446b-84d6-b224069329aa">
          <g
             id="id-e1cd1f7e-0d36-41de-8474-c203fd150c4b"
             transform="translate(148.712,134.765)">
            <path
               style="color:#000000;-inkscape-stroke:none"
               d="M 3.328125,-3.015625 C 3.390625,-3.265625 3.625,-4.1875 4.3125,-4.1875 c 0.046875,0 0.296875,0 0.5,0.125 C 4.53125,-4 4.34375,-3.765625 4.34375,-3.515625 c 0,0.15625 0.109375,0.34375 0.375,0.34375 0.21875,0 0.53125,-0.171875 0.53125,-0.578125 0,-0.515625 -0.578125,-0.65625 -0.921875,-0.65625 -0.578125,0 -0.921875,0.53125 -1.046875,0.75 -0.25,-0.65625 -0.78125,-0.75 -1.078125,-0.75 -1.03125,0 -1.609375,1.28125 -1.609375,1.53125 0,0.109375 0.109375,0.109375 0.125,0.109375 0.078125,0 0.109375,-0.03125 0.125,-0.109375 0.34375,-1.0625 1,-1.3125 1.34375,-1.3125 0.1875,0 0.53125,0.09375 0.53125,0.671875 0,0.3125 -0.171875,0.96875 -0.53125,2.375 -0.15625,0.609375 -0.515625,1.03125 -0.953125,1.03125 -0.0625,0 -0.28125,0 -0.5,-0.125 0.25,-0.0625 0.46875,-0.265625 0.46875,-0.546875 0,-0.265625 -0.21875,-0.34375 -0.359375,-0.34375 -0.3125,0 -0.546875,0.25 -0.546875,0.578125 0,0.453125 0.484375,0.65625 0.921875,0.65625 0.671875,0 1.03125,-0.703125 1.046875,-0.75 0.125,0.359375 0.484375,0.75 1.078125,0.75 1.03125,0 1.59375,-1.28125 1.59375,-1.53125 0,-0.109375 -0.078125,-0.109375 -0.109375,-0.109375 -0.09375,0 -0.109375,0.046875 -0.140625,0.109375 -0.328125,1.078125 -1,1.3125 -1.3125,1.3125 -0.390625,0 -0.546875,-0.3125 -0.546875,-0.65625 0,-0.21875 0.046875,-0.4375 0.15625,-0.875 z m 0,0"
               id="id-680b8ed0-ff0a-41d5-a654-b7b55f4770e6" />
          </g>
        </g>
        <g
           style="fill:#000000"
           id="id-224ebbb6-0eda-4bcd-a2ec-810ff0ae46fe">
          <g
             id="id-fbd45012-63d6-49d5-aa95-d470d54a366d"
             transform="translate(154.406,131.149)">
            <path
               style="color:#000000;-inkscape-stroke:none"
               d="m 2.015625,-3.296875 c 0.0625,-0.109375 0.0625,-0.171875 0.0625,-0.21875 0,-0.21875 -0.1875,-0.375 -0.40625,-0.375 -0.265625,0 -0.34375,0.21875 -0.375,0.328125 L 0.375,-0.546875 c -0.015625,0.015625 -0.046875,0.09375 -0.046875,0.109375 0,0.078125 0.21875,0.15625 0.28125,0.15625 0.046875,0 0.046875,-0.015625 0.09375,-0.125 z m 0,0"
               id="id-54995343-1447-47bb-a557-7338b92dffd7" />
          </g>
        </g>
      </g>
    </g>
  </g>
</svg>
